<?xml version="1.0" encoding="UTF-8"?>
<svg xmlns="http://www.w3.org/2000/svg" xmlns:xlink="http://www.w3.org/1999/xlink" width="345.6pt" height="36.864pt" viewBox="0 0 345.6 36.864" version="1.1" shape-rendering="crispEdges">
<defs>
<linearGradient id="linear0" gradientUnits="userSpaceOnUse" x1="4.4" y1="0" x2="4.782" y2="0" gradientTransform="matrix(72,0,0,72,0,0)">
<stop offset="0" style="stop-color:rgb(100%,0%,0%);stop-opacity:1;"/>
<stop offset="1" style="stop-color:rgb(100%,58.383149%,58.383149%);stop-opacity:1;"/>
</linearGradient>
<linearGradient id="linear1" gradientUnits="userSpaceOnUse" x1="4" y1="0" x2="4.382" y2="0" gradientTransform="matrix(72,0,0,72,0,0)">
<stop offset="0" style="stop-color:rgb(100%,0%,0%);stop-opacity:1;"/>
<stop offset="1" style="stop-color:rgb(100%,58.383149%,58.383149%);stop-opacity:1;"/>
</linearGradient>
<linearGradient id="linear2" gradientUnits="userSpaceOnUse" x1="3.6" y1="0" x2="3.982" y2="0" gradientTransform="matrix(72,0,0,72,0,0)">
<stop offset="0" style="stop-color:rgb(100%,0%,0%);stop-opacity:1;"/>
<stop offset="1" style="stop-color:rgb(100%,58.383149%,58.383149%);stop-opacity:1;"/>
</linearGradient>
<linearGradient id="linear3" gradientUnits="userSpaceOnUse" x1="3.2" y1="0" x2="3.582" y2="0" gradientTransform="matrix(72,0,0,72,0,0)">
<stop offset="0" style="stop-color:rgb(100%,0%,0%);stop-opacity:1;"/>
<stop offset="1" style="stop-color:rgb(100%,58.383149%,58.383149%);stop-opacity:1;"/>
</linearGradient>
<linearGradient id="linear4" gradientUnits="userSpaceOnUse" x1="2.8" y1="0" x2="3.182" y2="0" gradientTransform="matrix(72,0,0,72,0,0)">
<stop offset="0" style="stop-color:rgb(100%,0%,0%);stop-opacity:1;"/>
<stop offset="1" style="stop-color:rgb(100%,58.383149%,58.383149%);stop-opacity:1;"/>
</linearGradient>
<linearGradient id="linear5" gradientUnits="userSpaceOnUse" x1="2.4" y1="0" x2="2.782" y2="0" gradientTransform="matrix(72,0,0,72,0,0)">
<stop offset="0" style="stop-color:rgb(100%,0%,0%);stop-opacity:1;"/>
<stop offset="1" style="stop-color:rgb(100%,58.383149%,58.383149%);stop-opacity:1;"/>
</linearGradient>
<linearGradient id="linear6" gradientUnits="userSpaceOnUse" x1="2" y1="0" x2="2.382" y2="0" gradientTransform="matrix(72,0,0,72,0,0)">
<stop offset="0" style="stop-color:rgb(100%,0%,0%);stop-opacity:1;"/>
<stop offset="1" style="stop-color:rgb(100%,58.383149%,58.383149%);stop-opacity:1;"/>
</linearGradient>
<linearGradient id="linear7" gradientUnits="userSpaceOnUse" x1="1.6" y1="0" x2="1.982" y2="0" gradientTransform="matrix(72,0,0,72,0,0)">
<stop offset="0" style="stop-color:rgb(100%,0%,0%);stop-opacity:1;"/>
<stop offset="1" style="stop-color:rgb(100%,58.383149%,58.383149%);stop-opacity:1;"/>
</linearGradient>
<linearGradient id="linear8" gradientUnits="userSpaceOnUse" x1="1.2" y1="0" x2="1.582" y2="0" gradientTransform="matrix(72,0,0,72,0,0)">
<stop offset="0" style="stop-color:rgb(100%,0%,0%);stop-opacity:1;"/>
<stop offset="1" style="stop-color:rgb(100%,58.383149%,58.383149%);stop-opacity:1;"/>
</linearGradient>
<linearGradient id="linear9" gradientUnits="userSpaceOnUse" x1="0.8" y1="0" x2="1.182" y2="0" gradientTransform="matrix(72,0,0,72,0,0)">
<stop offset="0" style="stop-color:rgb(100%,0%,0%);stop-opacity:1;"/>
<stop offset="1" style="stop-color:rgb(100%,58.383149%,58.383149%);stop-opacity:1;"/>
</linearGradient>
<linearGradient id="linear10" gradientUnits="userSpaceOnUse" x1="0.4" y1="0" x2="0.782" y2="0" gradientTransform="matrix(72,0,0,72,0,0)">
<stop offset="0" style="stop-color:rgb(100%,0%,0%);stop-opacity:1;"/>
<stop offset="1" style="stop-color:rgb(100%,58.383149%,58.383149%);stop-opacity:1;"/>
</linearGradient>
<linearGradient id="linear11" gradientUnits="userSpaceOnUse" x1="0" y1="0" x2="0.382" y2="0" gradientTransform="matrix(72,0,0,72,0,0)">
<stop offset="0" style="stop-color:rgb(100%,0%,0%);stop-opacity:1;"/>
<stop offset="1" style="stop-color:rgb(100%,58.383149%,58.383149%);stop-opacity:1;"/>
</linearGradient>
<linearGradient id="linear12" gradientUnits="userSpaceOnUse" x1="4.4" y1="0" x2="4.782" y2="0" gradientTransform="matrix(72,0,0,72,0,18)">
<stop offset="0" style="stop-color:rgb(100%,64.705882%,0%);stop-opacity:1;"/>
<stop offset="1" style="stop-color:rgb(100%,77.56553%,58.383149%);stop-opacity:1;"/>
</linearGradient>
<linearGradient id="linear13" gradientUnits="userSpaceOnUse" x1="4" y1="0" x2="4.382" y2="0" gradientTransform="matrix(72,0,0,72,0,18)">
<stop offset="0" style="stop-color:rgb(100%,75.294118%,79.607843%);stop-opacity:1;"/>
<stop offset="1" style="stop-color:rgb(100%,83.729424%,86.39983%);stop-opacity:1;"/>
</linearGradient>
<linearGradient id="linear14" gradientUnits="userSpaceOnUse" x1="3.6" y1="0" x2="3.982" y2="0" gradientTransform="matrix(72,0,0,72,0,18)">
<stop offset="0" style="stop-color:rgb(50.196078%,0%,50.196078%);stop-opacity:1;"/>
<stop offset="1" style="stop-color:rgb(70.218223%,58.383149%,70.218223%);stop-opacity:1;"/>
</linearGradient>
<linearGradient id="linear15" gradientUnits="userSpaceOnUse" x1="3.2" y1="0" x2="3.582" y2="0" gradientTransform="matrix(72,0,0,72,0,18)">
<stop offset="0" style="stop-color:rgb(100%,75.294118%,79.607843%);stop-opacity:1;"/>
<stop offset="1" style="stop-color:rgb(100%,83.729424%,86.39983%);stop-opacity:1;"/>
</linearGradient>
<linearGradient id="linear16" gradientUnits="userSpaceOnUse" x1="2.8" y1="0" x2="3.182" y2="0" gradientTransform="matrix(72,0,0,72,0,18)">
<stop offset="0" style="stop-color:rgb(100%,64.705882%,0%);stop-opacity:1;"/>
<stop offset="1" style="stop-color:rgb(100%,77.56553%,58.383149%);stop-opacity:1;"/>
</linearGradient>
<linearGradient id="linear17" gradientUnits="userSpaceOnUse" x1="2.4" y1="0" x2="2.782" y2="0" gradientTransform="matrix(72,0,0,72,0,18)">
<stop offset="0" style="stop-color:rgb(100%,75.294118%,79.607843%);stop-opacity:1;"/>
<stop offset="1" style="stop-color:rgb(100%,83.729424%,86.39983%);stop-opacity:1;"/>
</linearGradient>
<linearGradient id="linear18" gradientUnits="userSpaceOnUse" x1="2" y1="0" x2="2.382" y2="0" gradientTransform="matrix(72,0,0,72,0,18)">
<stop offset="0" style="stop-color:rgb(50.196078%,0%,50.196078%);stop-opacity:1;"/>
<stop offset="1" style="stop-color:rgb(70.218223%,58.383149%,70.218223%);stop-opacity:1;"/>
</linearGradient>
<linearGradient id="linear19" gradientUnits="userSpaceOnUse" x1="1.6" y1="0" x2="1.982" y2="0" gradientTransform="matrix(72,0,0,72,0,18)">
<stop offset="0" style="stop-color:rgb(100%,75.294118%,79.607843%);stop-opacity:1;"/>
<stop offset="1" style="stop-color:rgb(100%,83.729424%,86.39983%);stop-opacity:1;"/>
</linearGradient>
<linearGradient id="linear20" gradientUnits="userSpaceOnUse" x1="1.2" y1="0" x2="1.582" y2="0" gradientTransform="matrix(72,0,0,72,0,18)">
<stop offset="0" style="stop-color:rgb(100%,64.705882%,0%);stop-opacity:1;"/>
<stop offset="1" style="stop-color:rgb(100%,77.56553%,58.383149%);stop-opacity:1;"/>
</linearGradient>
<linearGradient id="linear21" gradientUnits="userSpaceOnUse" x1="0.8" y1="0" x2="1.182" y2="0" gradientTransform="matrix(72,0,0,72,0,18)">
<stop offset="0" style="stop-color:rgb(100%,75.294118%,79.607843%);stop-opacity:1;"/>
<stop offset="1" style="stop-color:rgb(100%,83.729424%,86.39983%);stop-opacity:1;"/>
</linearGradient>
<linearGradient id="linear22" gradientUnits="userSpaceOnUse" x1="0.4" y1="0" x2="0.782" y2="0" gradientTransform="matrix(72,0,0,72,0,18)">
<stop offset="0" style="stop-color:rgb(50.196078%,0%,50.196078%);stop-opacity:1;"/>
<stop offset="1" style="stop-color:rgb(70.218223%,58.383149%,70.218223%);stop-opacity:1;"/>
</linearGradient>
<linearGradient id="linear23" gradientUnits="userSpaceOnUse" x1="0" y1="0" x2="0.382" y2="0" gradientTransform="matrix(72,0,0,72,0,18)">
<stop offset="0" style="stop-color:rgb(100%,75.294118%,79.607843%);stop-opacity:1;"/>
<stop offset="1" style="stop-color:rgb(100%,83.729424%,86.39983%);stop-opacity:1;"/>
</linearGradient>
</defs>
<g id="surface11">
<path style=" stroke:none;fill-rule:nonzero;fill:url(#linear0);" d="M 316.800781 0.433594 L 344.304688 0.433594 L 344.304688 16.707031 L 316.800781 16.707031 Z M 316.800781 0.433594 "/>
<path style="fill:none;stroke-width:0.012;stroke-linecap:round;stroke-linejoin:miter;stroke:rgb(0%,0%,0%);stroke-opacity:1;stroke-miterlimit:10;" d="M 4.405979 0.00602214 L 4.405979 0.23801 " transform="matrix(72,0,0,72,0,0)"/>
<path style="fill:none;stroke-width:0.012;stroke-linecap:round;stroke-linejoin:miter;stroke:rgb(0%,0%,0%);stroke-opacity:1;stroke-miterlimit:10;" d="M 4.78201 0.00602214 L 4.78201 0.23801 " transform="matrix(72,0,0,72,0,0)"/>
<path style="fill:none;stroke-width:0.012;stroke-linecap:round;stroke-linejoin:miter;stroke:rgb(0%,0%,0%);stroke-opacity:1;stroke-miterlimit:10;" d="M 4.405979 0.00602214 L 4.78201 0.00602214 " transform="matrix(72,0,0,72,0,0)"/>
<path style="fill:none;stroke-width:0.012;stroke-linecap:round;stroke-linejoin:miter;stroke:rgb(0%,0%,0%);stroke-opacity:1;stroke-miterlimit:10;" d="M 4.405979 0.23801 L 4.78201 0.23801 " transform="matrix(72,0,0,72,0,0)"/>
<path style=" stroke:none;fill-rule:nonzero;fill:url(#linear1);" d="M 288 0.433594 L 315.503906 0.433594 L 315.503906 16.707031 L 288 16.707031 Z M 288 0.433594 "/>
<path style="fill:none;stroke-width:0.012;stroke-linecap:round;stroke-linejoin:miter;stroke:rgb(0%,0%,0%);stroke-opacity:1;stroke-miterlimit:10;" d="M 4.006022 0.00602214 L 4.006022 0.23801 " transform="matrix(72,0,0,72,0,0)"/>
<path style="fill:none;stroke-width:0.012;stroke-linecap:round;stroke-linejoin:miter;stroke:rgb(0%,0%,0%);stroke-opacity:1;stroke-miterlimit:10;" d="M 4.381999 0.00602214 L 4.381999 0.23801 " transform="matrix(72,0,0,72,0,0)"/>
<path style="fill:none;stroke-width:0.012;stroke-linecap:round;stroke-linejoin:miter;stroke:rgb(0%,0%,0%);stroke-opacity:1;stroke-miterlimit:10;" d="M 4.006022 0.00602214 L 4.381999 0.00602214 " transform="matrix(72,0,0,72,0,0)"/>
<path style="fill:none;stroke-width:0.012;stroke-linecap:round;stroke-linejoin:miter;stroke:rgb(0%,0%,0%);stroke-opacity:1;stroke-miterlimit:10;" d="M 4.006022 0.23801 L 4.381999 0.23801 " transform="matrix(72,0,0,72,0,0)"/>
<path style=" stroke:none;fill-rule:nonzero;fill:url(#linear2);" d="M 259.199219 0.433594 L 286.703125 0.433594 L 286.703125 16.707031 L 259.199219 16.707031 Z M 259.199219 0.433594 "/>
<path style="fill:none;stroke-width:0.012;stroke-linecap:round;stroke-linejoin:miter;stroke:rgb(0%,0%,0%);stroke-opacity:1;stroke-miterlimit:10;" d="M 3.606011 0.00602214 L 3.606011 0.23801 " transform="matrix(72,0,0,72,0,0)"/>
<path style="fill:none;stroke-width:0.012;stroke-linecap:round;stroke-linejoin:miter;stroke:rgb(0%,0%,0%);stroke-opacity:1;stroke-miterlimit:10;" d="M 3.981988 0.00602214 L 3.981988 0.23801 " transform="matrix(72,0,0,72,0,0)"/>
<path style="fill:none;stroke-width:0.012;stroke-linecap:round;stroke-linejoin:miter;stroke:rgb(0%,0%,0%);stroke-opacity:1;stroke-miterlimit:10;" d="M 3.606011 0.00602214 L 3.981988 0.00602214 " transform="matrix(72,0,0,72,0,0)"/>
<path style="fill:none;stroke-width:0.012;stroke-linecap:round;stroke-linejoin:miter;stroke:rgb(0%,0%,0%);stroke-opacity:1;stroke-miterlimit:10;" d="M 3.606011 0.23801 L 3.981988 0.23801 " transform="matrix(72,0,0,72,0,0)"/>
<path style=" stroke:none;fill-rule:nonzero;fill:url(#linear3);" d="M 230.398438 0.433594 L 257.902344 0.433594 L 257.902344 16.707031 L 230.398438 16.707031 Z M 230.398438 0.433594 "/>
<path style="fill:none;stroke-width:0.012;stroke-linecap:round;stroke-linejoin:miter;stroke:rgb(0%,0%,0%);stroke-opacity:1;stroke-miterlimit:10;" d="M 3.206 0.00602214 L 3.206 0.23801 " transform="matrix(72,0,0,72,0,0)"/>
<path style="fill:none;stroke-width:0.012;stroke-linecap:round;stroke-linejoin:miter;stroke:rgb(0%,0%,0%);stroke-opacity:1;stroke-miterlimit:10;" d="M 3.581977 0.00602214 L 3.581977 0.23801 " transform="matrix(72,0,0,72,0,0)"/>
<path style="fill:none;stroke-width:0.012;stroke-linecap:round;stroke-linejoin:miter;stroke:rgb(0%,0%,0%);stroke-opacity:1;stroke-miterlimit:10;" d="M 3.206 0.00602214 L 3.581977 0.00602214 " transform="matrix(72,0,0,72,0,0)"/>
<path style="fill:none;stroke-width:0.012;stroke-linecap:round;stroke-linejoin:miter;stroke:rgb(0%,0%,0%);stroke-opacity:1;stroke-miterlimit:10;" d="M 3.206 0.23801 L 3.581977 0.23801 " transform="matrix(72,0,0,72,0,0)"/>
<path style=" stroke:none;fill-rule:nonzero;fill:url(#linear4);" d="M 201.601562 0.433594 L 229.105469 0.433594 L 229.105469 16.707031 L 201.601562 16.707031 Z M 201.601562 0.433594 "/>
<path style="fill:none;stroke-width:0.012;stroke-linecap:round;stroke-linejoin:miter;stroke:rgb(0%,0%,0%);stroke-opacity:1;stroke-miterlimit:10;" d="M 2.80599 0.00602214 L 2.80599 0.23801 " transform="matrix(72,0,0,72,0,0)"/>
<path style="fill:none;stroke-width:0.012;stroke-linecap:round;stroke-linejoin:miter;stroke:rgb(0%,0%,0%);stroke-opacity:1;stroke-miterlimit:10;" d="M 3.18202 0.00602214 L 3.18202 0.23801 " transform="matrix(72,0,0,72,0,0)"/>
<path style="fill:none;stroke-width:0.012;stroke-linecap:round;stroke-linejoin:miter;stroke:rgb(0%,0%,0%);stroke-opacity:1;stroke-miterlimit:10;" d="M 2.80599 0.00602214 L 3.18202 0.00602214 " transform="matrix(72,0,0,72,0,0)"/>
<path style="fill:none;stroke-width:0.012;stroke-linecap:round;stroke-linejoin:miter;stroke:rgb(0%,0%,0%);stroke-opacity:1;stroke-miterlimit:10;" d="M 2.80599 0.23801 L 3.18202 0.23801 " transform="matrix(72,0,0,72,0,0)"/>
<path style=" stroke:none;fill-rule:nonzero;fill:url(#linear5);" d="M 172.800781 0.433594 L 200.304688 0.433594 L 200.304688 16.707031 L 172.800781 16.707031 Z M 172.800781 0.433594 "/>
<path style="fill:none;stroke-width:0.012;stroke-linecap:round;stroke-linejoin:miter;stroke:rgb(0%,0%,0%);stroke-opacity:1;stroke-miterlimit:10;" d="M 2.405979 0.00602214 L 2.405979 0.23801 " transform="matrix(72,0,0,72,0,0)"/>
<path style="fill:none;stroke-width:0.012;stroke-linecap:round;stroke-linejoin:miter;stroke:rgb(0%,0%,0%);stroke-opacity:1;stroke-miterlimit:10;" d="M 2.78201 0.00602214 L 2.78201 0.23801 " transform="matrix(72,0,0,72,0,0)"/>
<path style="fill:none;stroke-width:0.012;stroke-linecap:round;stroke-linejoin:miter;stroke:rgb(0%,0%,0%);stroke-opacity:1;stroke-miterlimit:10;" d="M 2.405979 0.00602214 L 2.78201 0.00602214 " transform="matrix(72,0,0,72,0,0)"/>
<path style="fill:none;stroke-width:0.012;stroke-linecap:round;stroke-linejoin:miter;stroke:rgb(0%,0%,0%);stroke-opacity:1;stroke-miterlimit:10;" d="M 2.405979 0.23801 L 2.78201 0.23801 " transform="matrix(72,0,0,72,0,0)"/>
<path style=" stroke:none;fill-rule:nonzero;fill:url(#linear6);" d="M 144 0.433594 L 171.503906 0.433594 L 171.503906 16.707031 L 144 16.707031 Z M 144 0.433594 "/>
<path style="fill:none;stroke-width:0.012;stroke-linecap:round;stroke-linejoin:miter;stroke:rgb(0%,0%,0%);stroke-opacity:1;stroke-miterlimit:10;" d="M 2.006022 0.00602214 L 2.006022 0.23801 " transform="matrix(72,0,0,72,0,0)"/>
<path style="fill:none;stroke-width:0.012;stroke-linecap:round;stroke-linejoin:miter;stroke:rgb(0%,0%,0%);stroke-opacity:1;stroke-miterlimit:10;" d="M 2.381999 0.00602214 L 2.381999 0.23801 " transform="matrix(72,0,0,72,0,0)"/>
<path style="fill:none;stroke-width:0.012;stroke-linecap:round;stroke-linejoin:miter;stroke:rgb(0%,0%,0%);stroke-opacity:1;stroke-miterlimit:10;" d="M 2.006022 0.00602214 L 2.381999 0.00602214 " transform="matrix(72,0,0,72,0,0)"/>
<path style="fill:none;stroke-width:0.012;stroke-linecap:round;stroke-linejoin:miter;stroke:rgb(0%,0%,0%);stroke-opacity:1;stroke-miterlimit:10;" d="M 2.006022 0.23801 L 2.381999 0.23801 " transform="matrix(72,0,0,72,0,0)"/>
<path style=" stroke:none;fill-rule:nonzero;fill:url(#linear7);" d="M 115.199219 0.433594 L 142.703125 0.433594 L 142.703125 16.707031 L 115.199219 16.707031 Z M 115.199219 0.433594 "/>
<path style="fill:none;stroke-width:0.012;stroke-linecap:round;stroke-linejoin:miter;stroke:rgb(0%,0%,0%);stroke-opacity:1;stroke-miterlimit:10;" d="M 1.606011 0.00602214 L 1.606011 0.23801 " transform="matrix(72,0,0,72,0,0)"/>
<path style="fill:none;stroke-width:0.012;stroke-linecap:round;stroke-linejoin:miter;stroke:rgb(0%,0%,0%);stroke-opacity:1;stroke-miterlimit:10;" d="M 1.981988 0.00602214 L 1.981988 0.23801 " transform="matrix(72,0,0,72,0,0)"/>
<path style="fill:none;stroke-width:0.012;stroke-linecap:round;stroke-linejoin:miter;stroke:rgb(0%,0%,0%);stroke-opacity:1;stroke-miterlimit:10;" d="M 1.606011 0.00602214 L 1.981988 0.00602214 " transform="matrix(72,0,0,72,0,0)"/>
<path style="fill:none;stroke-width:0.012;stroke-linecap:round;stroke-linejoin:miter;stroke:rgb(0%,0%,0%);stroke-opacity:1;stroke-miterlimit:10;" d="M 1.606011 0.23801 L 1.981988 0.23801 " transform="matrix(72,0,0,72,0,0)"/>
<path style=" stroke:none;fill-rule:nonzero;fill:url(#linear8);" d="M 86.398438 0.433594 L 113.902344 0.433594 L 113.902344 16.707031 L 86.398438 16.707031 Z M 86.398438 0.433594 "/>
<path style="fill:none;stroke-width:0.012;stroke-linecap:round;stroke-linejoin:miter;stroke:rgb(0%,0%,0%);stroke-opacity:1;stroke-miterlimit:10;" d="M 1.206 0.00602214 L 1.206 0.23801 " transform="matrix(72,0,0,72,0,0)"/>
<path style="fill:none;stroke-width:0.012;stroke-linecap:round;stroke-linejoin:miter;stroke:rgb(0%,0%,0%);stroke-opacity:1;stroke-miterlimit:10;" d="M 1.581977 0.00602214 L 1.581977 0.23801 " transform="matrix(72,0,0,72,0,0)"/>
<path style="fill:none;stroke-width:0.012;stroke-linecap:round;stroke-linejoin:miter;stroke:rgb(0%,0%,0%);stroke-opacity:1;stroke-miterlimit:10;" d="M 1.206 0.00602214 L 1.581977 0.00602214 " transform="matrix(72,0,0,72,0,0)"/>
<path style="fill:none;stroke-width:0.012;stroke-linecap:round;stroke-linejoin:miter;stroke:rgb(0%,0%,0%);stroke-opacity:1;stroke-miterlimit:10;" d="M 1.206 0.23801 L 1.581977 0.23801 " transform="matrix(72,0,0,72,0,0)"/>
<path style=" stroke:none;fill-rule:nonzero;fill:url(#linear9);" d="M 57.601562 0.433594 L 85.105469 0.433594 L 85.105469 16.707031 L 57.601562 16.707031 Z M 57.601562 0.433594 "/>
<path style="fill:none;stroke-width:0.012;stroke-linecap:round;stroke-linejoin:miter;stroke:rgb(0%,0%,0%);stroke-opacity:1;stroke-miterlimit:10;" d="M 0.80599 0.00602214 L 0.80599 0.23801 " transform="matrix(72,0,0,72,0,0)"/>
<path style="fill:none;stroke-width:0.012;stroke-linecap:round;stroke-linejoin:miter;stroke:rgb(0%,0%,0%);stroke-opacity:1;stroke-miterlimit:10;" d="M 1.18202 0.00602214 L 1.18202 0.23801 " transform="matrix(72,0,0,72,0,0)"/>
<path style="fill:none;stroke-width:0.012;stroke-linecap:round;stroke-linejoin:miter;stroke:rgb(0%,0%,0%);stroke-opacity:1;stroke-miterlimit:10;" d="M 0.80599 0.00602214 L 1.18202 0.00602214 " transform="matrix(72,0,0,72,0,0)"/>
<path style="fill:none;stroke-width:0.012;stroke-linecap:round;stroke-linejoin:miter;stroke:rgb(0%,0%,0%);stroke-opacity:1;stroke-miterlimit:10;" d="M 0.80599 0.23801 L 1.18202 0.23801 " transform="matrix(72,0,0,72,0,0)"/>
<path style=" stroke:none;fill-rule:nonzero;fill:url(#linear10);" d="M 28.800781 0.433594 L 56.304688 0.433594 L 56.304688 16.707031 L 28.800781 16.707031 Z M 28.800781 0.433594 "/>
<path style="fill:none;stroke-width:0.012;stroke-linecap:round;stroke-linejoin:miter;stroke:rgb(0%,0%,0%);stroke-opacity:1;stroke-miterlimit:10;" d="M 0.405979 0.00602214 L 0.405979 0.23801 " transform="matrix(72,0,0,72,0,0)"/>
<path style="fill:none;stroke-width:0.012;stroke-linecap:round;stroke-linejoin:miter;stroke:rgb(0%,0%,0%);stroke-opacity:1;stroke-miterlimit:10;" d="M 0.78201 0.00602214 L 0.78201 0.23801 " transform="matrix(72,0,0,72,0,0)"/>
<path style="fill:none;stroke-width:0.012;stroke-linecap:round;stroke-linejoin:miter;stroke:rgb(0%,0%,0%);stroke-opacity:1;stroke-miterlimit:10;" d="M 0.405979 0.00602214 L 0.78201 0.00602214 " transform="matrix(72,0,0,72,0,0)"/>
<path style="fill:none;stroke-width:0.012;stroke-linecap:round;stroke-linejoin:miter;stroke:rgb(0%,0%,0%);stroke-opacity:1;stroke-miterlimit:10;" d="M 0.405979 0.23801 L 0.78201 0.23801 " transform="matrix(72,0,0,72,0,0)"/>
<path style=" stroke:none;fill-rule:nonzero;fill:url(#linear11);" d="M 0 0.433594 L 27.503906 0.433594 L 27.503906 16.707031 L 0 16.707031 Z M 0 0.433594 "/>
<path style="fill:none;stroke-width:0.012;stroke-linecap:round;stroke-linejoin:miter;stroke:rgb(0%,0%,0%);stroke-opacity:1;stroke-miterlimit:10;" d="M 0.00602214 0.00602214 L 0.00602214 0.23801 " transform="matrix(72,0,0,72,0,0)"/>
<path style="fill:none;stroke-width:0.012;stroke-linecap:round;stroke-linejoin:miter;stroke:rgb(0%,0%,0%);stroke-opacity:1;stroke-miterlimit:10;" d="M 0.381999 0.00602214 L 0.381999 0.23801 " transform="matrix(72,0,0,72,0,0)"/>
<path style="fill:none;stroke-width:0.012;stroke-linecap:round;stroke-linejoin:miter;stroke:rgb(0%,0%,0%);stroke-opacity:1;stroke-miterlimit:10;" d="M 0.00602214 0.00602214 L 0.381999 0.00602214 " transform="matrix(72,0,0,72,0,0)"/>
<path style="fill:none;stroke-width:0.012;stroke-linecap:round;stroke-linejoin:miter;stroke:rgb(0%,0%,0%);stroke-opacity:1;stroke-miterlimit:10;" d="M 0.00602214 0.23801 L 0.381999 0.23801 " transform="matrix(72,0,0,72,0,0)"/>
<path style=" stroke:none;fill-rule:nonzero;fill:url(#linear12);" d="M 316.800781 18.433594 L 344.304688 18.433594 L 344.304688 34.707031 L 316.800781 34.707031 Z M 316.800781 18.433594 "/>
<path style="fill:none;stroke-width:0.012;stroke-linecap:round;stroke-linejoin:miter;stroke:rgb(0%,0%,0%);stroke-opacity:1;stroke-miterlimit:10;" d="M 4.405979 0.00602214 L 4.405979 0.23801 " transform="matrix(72,0,0,72,0,18)"/>
<path style="fill:none;stroke-width:0.012;stroke-linecap:round;stroke-linejoin:miter;stroke:rgb(0%,0%,0%);stroke-opacity:1;stroke-miterlimit:10;" d="M 4.78201 0.00602214 L 4.78201 0.23801 " transform="matrix(72,0,0,72,0,18)"/>
<path style="fill:none;stroke-width:0.012;stroke-linecap:round;stroke-linejoin:miter;stroke:rgb(0%,0%,0%);stroke-opacity:1;stroke-miterlimit:10;" d="M 4.405979 0.00602214 L 4.78201 0.00602214 " transform="matrix(72,0,0,72,0,18)"/>
<path style="fill:none;stroke-width:0.012;stroke-linecap:round;stroke-linejoin:miter;stroke:rgb(0%,0%,0%);stroke-opacity:1;stroke-miterlimit:10;" d="M 4.405979 0.23801 L 4.78201 0.23801 " transform="matrix(72,0,0,72,0,18)"/>
<path style=" stroke:none;fill-rule:nonzero;fill:url(#linear13);" d="M 288 18.433594 L 315.503906 18.433594 L 315.503906 34.707031 L 288 34.707031 Z M 288 18.433594 "/>
<path style="fill:none;stroke-width:0.012;stroke-linecap:round;stroke-linejoin:miter;stroke:rgb(0%,0%,0%);stroke-opacity:1;stroke-miterlimit:10;" d="M 4.006022 0.00602214 L 4.006022 0.23801 " transform="matrix(72,0,0,72,0,18)"/>
<path style="fill:none;stroke-width:0.012;stroke-linecap:round;stroke-linejoin:miter;stroke:rgb(0%,0%,0%);stroke-opacity:1;stroke-miterlimit:10;" d="M 4.381999 0.00602214 L 4.381999 0.23801 " transform="matrix(72,0,0,72,0,18)"/>
<path style="fill:none;stroke-width:0.012;stroke-linecap:round;stroke-linejoin:miter;stroke:rgb(0%,0%,0%);stroke-opacity:1;stroke-miterlimit:10;" d="M 4.006022 0.00602214 L 4.381999 0.00602214 " transform="matrix(72,0,0,72,0,18)"/>
<path style="fill:none;stroke-width:0.012;stroke-linecap:round;stroke-linejoin:miter;stroke:rgb(0%,0%,0%);stroke-opacity:1;stroke-miterlimit:10;" d="M 4.006022 0.23801 L 4.381999 0.23801 " transform="matrix(72,0,0,72,0,18)"/>
<path style=" stroke:none;fill-rule:nonzero;fill:url(#linear14);" d="M 259.199219 18.433594 L 286.703125 18.433594 L 286.703125 34.707031 L 259.199219 34.707031 Z M 259.199219 18.433594 "/>
<path style="fill:none;stroke-width:0.012;stroke-linecap:round;stroke-linejoin:miter;stroke:rgb(0%,0%,0%);stroke-opacity:1;stroke-miterlimit:10;" d="M 3.606011 0.00602214 L 3.606011 0.23801 " transform="matrix(72,0,0,72,0,18)"/>
<path style="fill:none;stroke-width:0.012;stroke-linecap:round;stroke-linejoin:miter;stroke:rgb(0%,0%,0%);stroke-opacity:1;stroke-miterlimit:10;" d="M 3.981988 0.00602214 L 3.981988 0.23801 " transform="matrix(72,0,0,72,0,18)"/>
<path style="fill:none;stroke-width:0.012;stroke-linecap:round;stroke-linejoin:miter;stroke:rgb(0%,0%,0%);stroke-opacity:1;stroke-miterlimit:10;" d="M 3.606011 0.00602214 L 3.981988 0.00602214 " transform="matrix(72,0,0,72,0,18)"/>
<path style="fill:none;stroke-width:0.012;stroke-linecap:round;stroke-linejoin:miter;stroke:rgb(0%,0%,0%);stroke-opacity:1;stroke-miterlimit:10;" d="M 3.606011 0.23801 L 3.981988 0.23801 " transform="matrix(72,0,0,72,0,18)"/>
<path style=" stroke:none;fill-rule:nonzero;fill:url(#linear15);" d="M 230.398438 18.433594 L 257.902344 18.433594 L 257.902344 34.707031 L 230.398438 34.707031 Z M 230.398438 18.433594 "/>
<path style="fill:none;stroke-width:0.012;stroke-linecap:round;stroke-linejoin:miter;stroke:rgb(0%,0%,0%);stroke-opacity:1;stroke-miterlimit:10;" d="M 3.206 0.00602214 L 3.206 0.23801 " transform="matrix(72,0,0,72,0,18)"/>
<path style="fill:none;stroke-width:0.012;stroke-linecap:round;stroke-linejoin:miter;stroke:rgb(0%,0%,0%);stroke-opacity:1;stroke-miterlimit:10;" d="M 3.581977 0.00602214 L 3.581977 0.23801 " transform="matrix(72,0,0,72,0,18)"/>
<path style="fill:none;stroke-width:0.012;stroke-linecap:round;stroke-linejoin:miter;stroke:rgb(0%,0%,0%);stroke-opacity:1;stroke-miterlimit:10;" d="M 3.206 0.00602214 L 3.581977 0.00602214 " transform="matrix(72,0,0,72,0,18)"/>
<path style="fill:none;stroke-width:0.012;stroke-linecap:round;stroke-linejoin:miter;stroke:rgb(0%,0%,0%);stroke-opacity:1;stroke-miterlimit:10;" d="M 3.206 0.23801 L 3.581977 0.23801 " transform="matrix(72,0,0,72,0,18)"/>
<path style=" stroke:none;fill-rule:nonzero;fill:url(#linear16);" d="M 201.601562 18.433594 L 229.105469 18.433594 L 229.105469 34.707031 L 201.601562 34.707031 Z M 201.601562 18.433594 "/>
<path style="fill:none;stroke-width:0.012;stroke-linecap:round;stroke-linejoin:miter;stroke:rgb(0%,0%,0%);stroke-opacity:1;stroke-miterlimit:10;" d="M 2.80599 0.00602214 L 2.80599 0.23801 " transform="matrix(72,0,0,72,0,18)"/>
<path style="fill:none;stroke-width:0.012;stroke-linecap:round;stroke-linejoin:miter;stroke:rgb(0%,0%,0%);stroke-opacity:1;stroke-miterlimit:10;" d="M 3.18202 0.00602214 L 3.18202 0.23801 " transform="matrix(72,0,0,72,0,18)"/>
<path style="fill:none;stroke-width:0.012;stroke-linecap:round;stroke-linejoin:miter;stroke:rgb(0%,0%,0%);stroke-opacity:1;stroke-miterlimit:10;" d="M 2.80599 0.00602214 L 3.18202 0.00602214 " transform="matrix(72,0,0,72,0,18)"/>
<path style="fill:none;stroke-width:0.012;stroke-linecap:round;stroke-linejoin:miter;stroke:rgb(0%,0%,0%);stroke-opacity:1;stroke-miterlimit:10;" d="M 2.80599 0.23801 L 3.18202 0.23801 " transform="matrix(72,0,0,72,0,18)"/>
<path style=" stroke:none;fill-rule:nonzero;fill:url(#linear17);" d="M 172.800781 18.433594 L 200.304688 18.433594 L 200.304688 34.707031 L 172.800781 34.707031 Z M 172.800781 18.433594 "/>
<path style="fill:none;stroke-width:0.012;stroke-linecap:round;stroke-linejoin:miter;stroke:rgb(0%,0%,0%);stroke-opacity:1;stroke-miterlimit:10;" d="M 2.405979 0.00602214 L 2.405979 0.23801 " transform="matrix(72,0,0,72,0,18)"/>
<path style="fill:none;stroke-width:0.012;stroke-linecap:round;stroke-linejoin:miter;stroke:rgb(0%,0%,0%);stroke-opacity:1;stroke-miterlimit:10;" d="M 2.78201 0.00602214 L 2.78201 0.23801 " transform="matrix(72,0,0,72,0,18)"/>
<path style="fill:none;stroke-width:0.012;stroke-linecap:round;stroke-linejoin:miter;stroke:rgb(0%,0%,0%);stroke-opacity:1;stroke-miterlimit:10;" d="M 2.405979 0.00602214 L 2.78201 0.00602214 " transform="matrix(72,0,0,72,0,18)"/>
<path style="fill:none;stroke-width:0.012;stroke-linecap:round;stroke-linejoin:miter;stroke:rgb(0%,0%,0%);stroke-opacity:1;stroke-miterlimit:10;" d="M 2.405979 0.23801 L 2.78201 0.23801 " transform="matrix(72,0,0,72,0,18)"/>
<path style=" stroke:none;fill-rule:nonzero;fill:url(#linear18);" d="M 144 18.433594 L 171.503906 18.433594 L 171.503906 34.707031 L 144 34.707031 Z M 144 18.433594 "/>
<path style="fill:none;stroke-width:0.012;stroke-linecap:round;stroke-linejoin:miter;stroke:rgb(0%,0%,0%);stroke-opacity:1;stroke-miterlimit:10;" d="M 2.006022 0.00602214 L 2.006022 0.23801 " transform="matrix(72,0,0,72,0,18)"/>
<path style="fill:none;stroke-width:0.012;stroke-linecap:round;stroke-linejoin:miter;stroke:rgb(0%,0%,0%);stroke-opacity:1;stroke-miterlimit:10;" d="M 2.381999 0.00602214 L 2.381999 0.23801 " transform="matrix(72,0,0,72,0,18)"/>
<path style="fill:none;stroke-width:0.012;stroke-linecap:round;stroke-linejoin:miter;stroke:rgb(0%,0%,0%);stroke-opacity:1;stroke-miterlimit:10;" d="M 2.006022 0.00602214 L 2.381999 0.00602214 " transform="matrix(72,0,0,72,0,18)"/>
<path style="fill:none;stroke-width:0.012;stroke-linecap:round;stroke-linejoin:miter;stroke:rgb(0%,0%,0%);stroke-opacity:1;stroke-miterlimit:10;" d="M 2.006022 0.23801 L 2.381999 0.23801 " transform="matrix(72,0,0,72,0,18)"/>
<path style=" stroke:none;fill-rule:nonzero;fill:url(#linear19);" d="M 115.199219 18.433594 L 142.703125 18.433594 L 142.703125 34.707031 L 115.199219 34.707031 Z M 115.199219 18.433594 "/>
<path style="fill:none;stroke-width:0.012;stroke-linecap:round;stroke-linejoin:miter;stroke:rgb(0%,0%,0%);stroke-opacity:1;stroke-miterlimit:10;" d="M 1.606011 0.00602214 L 1.606011 0.23801 " transform="matrix(72,0,0,72,0,18)"/>
<path style="fill:none;stroke-width:0.012;stroke-linecap:round;stroke-linejoin:miter;stroke:rgb(0%,0%,0%);stroke-opacity:1;stroke-miterlimit:10;" d="M 1.981988 0.00602214 L 1.981988 0.23801 " transform="matrix(72,0,0,72,0,18)"/>
<path style="fill:none;stroke-width:0.012;stroke-linecap:round;stroke-linejoin:miter;stroke:rgb(0%,0%,0%);stroke-opacity:1;stroke-miterlimit:10;" d="M 1.606011 0.00602214 L 1.981988 0.00602214 " transform="matrix(72,0,0,72,0,18)"/>
<path style="fill:none;stroke-width:0.012;stroke-linecap:round;stroke-linejoin:miter;stroke:rgb(0%,0%,0%);stroke-opacity:1;stroke-miterlimit:10;" d="M 1.606011 0.23801 L 1.981988 0.23801 " transform="matrix(72,0,0,72,0,18)"/>
<path style=" stroke:none;fill-rule:nonzero;fill:url(#linear20);" d="M 86.398438 18.433594 L 113.902344 18.433594 L 113.902344 34.707031 L 86.398438 34.707031 Z M 86.398438 18.433594 "/>
<path style="fill:none;stroke-width:0.012;stroke-linecap:round;stroke-linejoin:miter;stroke:rgb(0%,0%,0%);stroke-opacity:1;stroke-miterlimit:10;" d="M 1.206 0.00602214 L 1.206 0.23801 " transform="matrix(72,0,0,72,0,18)"/>
<path style="fill:none;stroke-width:0.012;stroke-linecap:round;stroke-linejoin:miter;stroke:rgb(0%,0%,0%);stroke-opacity:1;stroke-miterlimit:10;" d="M 1.581977 0.00602214 L 1.581977 0.23801 " transform="matrix(72,0,0,72,0,18)"/>
<path style="fill:none;stroke-width:0.012;stroke-linecap:round;stroke-linejoin:miter;stroke:rgb(0%,0%,0%);stroke-opacity:1;stroke-miterlimit:10;" d="M 1.206 0.00602214 L 1.581977 0.00602214 " transform="matrix(72,0,0,72,0,18)"/>
<path style="fill:none;stroke-width:0.012;stroke-linecap:round;stroke-linejoin:miter;stroke:rgb(0%,0%,0%);stroke-opacity:1;stroke-miterlimit:10;" d="M 1.206 0.23801 L 1.581977 0.23801 " transform="matrix(72,0,0,72,0,18)"/>
<path style=" stroke:none;fill-rule:nonzero;fill:url(#linear21);" d="M 57.601562 18.433594 L 85.105469 18.433594 L 85.105469 34.707031 L 57.601562 34.707031 Z M 57.601562 18.433594 "/>
<path style="fill:none;stroke-width:0.012;stroke-linecap:round;stroke-linejoin:miter;stroke:rgb(0%,0%,0%);stroke-opacity:1;stroke-miterlimit:10;" d="M 0.80599 0.00602214 L 0.80599 0.23801 " transform="matrix(72,0,0,72,0,18)"/>
<path style="fill:none;stroke-width:0.012;stroke-linecap:round;stroke-linejoin:miter;stroke:rgb(0%,0%,0%);stroke-opacity:1;stroke-miterlimit:10;" d="M 1.18202 0.00602214 L 1.18202 0.23801 " transform="matrix(72,0,0,72,0,18)"/>
<path style="fill:none;stroke-width:0.012;stroke-linecap:round;stroke-linejoin:miter;stroke:rgb(0%,0%,0%);stroke-opacity:1;stroke-miterlimit:10;" d="M 0.80599 0.00602214 L 1.18202 0.00602214 " transform="matrix(72,0,0,72,0,18)"/>
<path style="fill:none;stroke-width:0.012;stroke-linecap:round;stroke-linejoin:miter;stroke:rgb(0%,0%,0%);stroke-opacity:1;stroke-miterlimit:10;" d="M 0.80599 0.23801 L 1.18202 0.23801 " transform="matrix(72,0,0,72,0,18)"/>
<path style=" stroke:none;fill-rule:nonzero;fill:url(#linear22);" d="M 28.800781 18.433594 L 56.304688 18.433594 L 56.304688 34.707031 L 28.800781 34.707031 Z M 28.800781 18.433594 "/>
<path style="fill:none;stroke-width:0.012;stroke-linecap:round;stroke-linejoin:miter;stroke:rgb(0%,0%,0%);stroke-opacity:1;stroke-miterlimit:10;" d="M 0.405979 0.00602214 L 0.405979 0.23801 " transform="matrix(72,0,0,72,0,18)"/>
<path style="fill:none;stroke-width:0.012;stroke-linecap:round;stroke-linejoin:miter;stroke:rgb(0%,0%,0%);stroke-opacity:1;stroke-miterlimit:10;" d="M 0.78201 0.00602214 L 0.78201 0.23801 " transform="matrix(72,0,0,72,0,18)"/>
<path style="fill:none;stroke-width:0.012;stroke-linecap:round;stroke-linejoin:miter;stroke:rgb(0%,0%,0%);stroke-opacity:1;stroke-miterlimit:10;" d="M 0.405979 0.00602214 L 0.78201 0.00602214 " transform="matrix(72,0,0,72,0,18)"/>
<path style="fill:none;stroke-width:0.012;stroke-linecap:round;stroke-linejoin:miter;stroke:rgb(0%,0%,0%);stroke-opacity:1;stroke-miterlimit:10;" d="M 0.405979 0.23801 L 0.78201 0.23801 " transform="matrix(72,0,0,72,0,18)"/>
<path style=" stroke:none;fill-rule:nonzero;fill:url(#linear23);" d="M 0 18.433594 L 27.503906 18.433594 L 27.503906 34.707031 L 0 34.707031 Z M 0 18.433594 "/>
<path style="fill:none;stroke-width:0.012;stroke-linecap:round;stroke-linejoin:miter;stroke:rgb(0%,0%,0%);stroke-opacity:1;stroke-miterlimit:10;" d="M 0.00602214 0.00602214 L 0.00602214 0.23801 " transform="matrix(72,0,0,72,0,18)"/>
<path style="fill:none;stroke-width:0.012;stroke-linecap:round;stroke-linejoin:miter;stroke:rgb(0%,0%,0%);stroke-opacity:1;stroke-miterlimit:10;" d="M 0.381999 0.00602214 L 0.381999 0.23801 " transform="matrix(72,0,0,72,0,18)"/>
<path style="fill:none;stroke-width:0.012;stroke-linecap:round;stroke-linejoin:miter;stroke:rgb(0%,0%,0%);stroke-opacity:1;stroke-miterlimit:10;" d="M 0.00602214 0.00602214 L 0.381999 0.00602214 " transform="matrix(72,0,0,72,0,18)"/>
<path style="fill:none;stroke-width:0.012;stroke-linecap:round;stroke-linejoin:miter;stroke:rgb(0%,0%,0%);stroke-opacity:1;stroke-miterlimit:10;" d="M 0.00602214 0.23801 L 0.381999 0.23801 " transform="matrix(72,0,0,72,0,18)"/>
</g>
</svg>
