<?xml version="1.0" encoding="UTF-8"?>
<svg xmlns="http://www.w3.org/2000/svg" xmlns:xlink="http://www.w3.org/1999/xlink" width="345.6pt" height="37.08pt" viewBox="0 0 345.6 37.08" version="1.1" shape-rendering="crispEdges">
<defs>
<linearGradient id="linear0" gradientUnits="userSpaceOnUse" x1="4.533333" y1="0" x2="4.7775" y2="0" gradientTransform="matrix(72,0,0,72,0,0)">
<stop offset="0" style="stop-color:rgb(50.196078%,0%,50.196078%);stop-opacity:1;"/>
<stop offset="1" style="stop-color:rgb(70.218223%,58.383149%,70.218223%);stop-opacity:1;"/>
</linearGradient>
<linearGradient id="linear1" gradientUnits="userSpaceOnUse" x1="4.266667" y1="0" x2="4.510833" y2="0" gradientTransform="matrix(72,0,0,72,0,0)">
<stop offset="0" style="stop-color:rgb(100%,0%,0%);stop-opacity:1;"/>
<stop offset="1" style="stop-color:rgb(100%,58.383149%,58.383149%);stop-opacity:1;"/>
</linearGradient>
<linearGradient id="linear2" gradientUnits="userSpaceOnUse" x1="4" y1="0" x2="4.244167" y2="0" gradientTransform="matrix(72,0,0,72,0,0)">
<stop offset="0" style="stop-color:rgb(50.196078%,0%,50.196078%);stop-opacity:1;"/>
<stop offset="1" style="stop-color:rgb(70.218223%,58.383149%,70.218223%);stop-opacity:1;"/>
</linearGradient>
<linearGradient id="linear3" gradientUnits="userSpaceOnUse" x1="3.733333" y1="0" x2="3.9775" y2="0" gradientTransform="matrix(72,0,0,72,0,0)">
<stop offset="0" style="stop-color:rgb(100%,0%,0%);stop-opacity:1;"/>
<stop offset="1" style="stop-color:rgb(100%,58.383149%,58.383149%);stop-opacity:1;"/>
</linearGradient>
<linearGradient id="linear4" gradientUnits="userSpaceOnUse" x1="3.466667" y1="0" x2="3.710833" y2="0" gradientTransform="matrix(72,0,0,72,0,0)">
<stop offset="0" style="stop-color:rgb(50.196078%,0%,50.196078%);stop-opacity:1;"/>
<stop offset="1" style="stop-color:rgb(70.218223%,58.383149%,70.218223%);stop-opacity:1;"/>
</linearGradient>
<linearGradient id="linear5" gradientUnits="userSpaceOnUse" x1="3.2" y1="0" x2="3.444167" y2="0" gradientTransform="matrix(72,0,0,72,0,0)">
<stop offset="0" style="stop-color:rgb(100%,0%,0%);stop-opacity:1;"/>
<stop offset="1" style="stop-color:rgb(100%,58.383149%,58.383149%);stop-opacity:1;"/>
</linearGradient>
<linearGradient id="linear6" gradientUnits="userSpaceOnUse" x1="2.933333" y1="0" x2="3.1775" y2="0" gradientTransform="matrix(72,0,0,72,0,0)">
<stop offset="0" style="stop-color:rgb(50.196078%,0%,50.196078%);stop-opacity:1;"/>
<stop offset="1" style="stop-color:rgb(70.218223%,58.383149%,70.218223%);stop-opacity:1;"/>
</linearGradient>
<linearGradient id="linear7" gradientUnits="userSpaceOnUse" x1="2.666667" y1="0" x2="2.910833" y2="0" gradientTransform="matrix(72,0,0,72,0,0)">
<stop offset="0" style="stop-color:rgb(100%,0%,0%);stop-opacity:1;"/>
<stop offset="1" style="stop-color:rgb(100%,58.383149%,58.383149%);stop-opacity:1;"/>
</linearGradient>
<linearGradient id="linear8" gradientUnits="userSpaceOnUse" x1="2.4" y1="0" x2="2.644167" y2="0" gradientTransform="matrix(72,0,0,72,0,0)">
<stop offset="0" style="stop-color:rgb(50.196078%,0%,50.196078%);stop-opacity:1;"/>
<stop offset="1" style="stop-color:rgb(70.218223%,58.383149%,70.218223%);stop-opacity:1;"/>
</linearGradient>
<linearGradient id="linear9" gradientUnits="userSpaceOnUse" x1="2.133333" y1="0" x2="2.3775" y2="0" gradientTransform="matrix(72,0,0,72,0,0)">
<stop offset="0" style="stop-color:rgb(100%,0%,0%);stop-opacity:1;"/>
<stop offset="1" style="stop-color:rgb(100%,58.383149%,58.383149%);stop-opacity:1;"/>
</linearGradient>
<linearGradient id="linear10" gradientUnits="userSpaceOnUse" x1="1.866667" y1="0" x2="2.110833" y2="0" gradientTransform="matrix(72,0,0,72,0,0)">
<stop offset="0" style="stop-color:rgb(50.196078%,0%,50.196078%);stop-opacity:1;"/>
<stop offset="1" style="stop-color:rgb(70.218223%,58.383149%,70.218223%);stop-opacity:1;"/>
</linearGradient>
<linearGradient id="linear11" gradientUnits="userSpaceOnUse" x1="1.6" y1="0" x2="1.844167" y2="0" gradientTransform="matrix(72,0,0,72,0,0)">
<stop offset="0" style="stop-color:rgb(100%,0%,0%);stop-opacity:1;"/>
<stop offset="1" style="stop-color:rgb(100%,58.383149%,58.383149%);stop-opacity:1;"/>
</linearGradient>
<linearGradient id="linear12" gradientUnits="userSpaceOnUse" x1="1.333333" y1="0" x2="1.5775" y2="0" gradientTransform="matrix(72,0,0,72,0,0)">
<stop offset="0" style="stop-color:rgb(50.196078%,0%,50.196078%);stop-opacity:1;"/>
<stop offset="1" style="stop-color:rgb(70.218223%,58.383149%,70.218223%);stop-opacity:1;"/>
</linearGradient>
<linearGradient id="linear13" gradientUnits="userSpaceOnUse" x1="1.066667" y1="0" x2="1.310833" y2="0" gradientTransform="matrix(72,0,0,72,0,0)">
<stop offset="0" style="stop-color:rgb(100%,0%,0%);stop-opacity:1;"/>
<stop offset="1" style="stop-color:rgb(100%,58.383149%,58.383149%);stop-opacity:1;"/>
</linearGradient>
<linearGradient id="linear14" gradientUnits="userSpaceOnUse" x1="0.8" y1="0" x2="1.044167" y2="0" gradientTransform="matrix(72,0,0,72,0,0)">
<stop offset="0" style="stop-color:rgb(50.196078%,0%,50.196078%);stop-opacity:1;"/>
<stop offset="1" style="stop-color:rgb(70.218223%,58.383149%,70.218223%);stop-opacity:1;"/>
</linearGradient>
<linearGradient id="linear15" gradientUnits="userSpaceOnUse" x1="0.533333" y1="0" x2="0.7775" y2="0" gradientTransform="matrix(72,0,0,72,0,0)">
<stop offset="0" style="stop-color:rgb(100%,0%,0%);stop-opacity:1;"/>
<stop offset="1" style="stop-color:rgb(100%,58.383149%,58.383149%);stop-opacity:1;"/>
</linearGradient>
<linearGradient id="linear16" gradientUnits="userSpaceOnUse" x1="0.266667" y1="0" x2="0.510833" y2="0" gradientTransform="matrix(72,0,0,72,0,0)">
<stop offset="0" style="stop-color:rgb(50.196078%,0%,50.196078%);stop-opacity:1;"/>
<stop offset="1" style="stop-color:rgb(70.218223%,58.383149%,70.218223%);stop-opacity:1;"/>
</linearGradient>
<linearGradient id="linear17" gradientUnits="userSpaceOnUse" x1="0" y1="0" x2="0.244167" y2="0" gradientTransform="matrix(72,0,0,72,0,0)">
<stop offset="0" style="stop-color:rgb(100%,0%,0%);stop-opacity:1;"/>
<stop offset="1" style="stop-color:rgb(100%,58.383149%,58.383149%);stop-opacity:1;"/>
</linearGradient>
<linearGradient id="linear18" gradientUnits="userSpaceOnUse" x1="4" y1="0" x2="4.7775" y2="0" gradientTransform="matrix(72,0,0,72,0,18)">
<stop offset="0" style="stop-color:rgb(50.196078%,0%,50.196078%);stop-opacity:1;"/>
<stop offset="1" style="stop-color:rgb(70.218223%,58.383149%,70.218223%);stop-opacity:1;"/>
</linearGradient>
<linearGradient id="linear19" gradientUnits="userSpaceOnUse" x1="3.2" y1="0" x2="3.9775" y2="0" gradientTransform="matrix(72,0,0,72,0,18)">
<stop offset="0" style="stop-color:rgb(100%,0%,0%);stop-opacity:1;"/>
<stop offset="1" style="stop-color:rgb(100%,58.383149%,58.383149%);stop-opacity:1;"/>
</linearGradient>
<linearGradient id="linear20" gradientUnits="userSpaceOnUse" x1="2.4" y1="0" x2="3.1775" y2="0" gradientTransform="matrix(72,0,0,72,0,18)">
<stop offset="0" style="stop-color:rgb(50.196078%,0%,50.196078%);stop-opacity:1;"/>
<stop offset="1" style="stop-color:rgb(70.218223%,58.383149%,70.218223%);stop-opacity:1;"/>
</linearGradient>
<linearGradient id="linear21" gradientUnits="userSpaceOnUse" x1="1.6" y1="0" x2="2.3775" y2="0" gradientTransform="matrix(72,0,0,72,0,18)">
<stop offset="0" style="stop-color:rgb(100%,0%,0%);stop-opacity:1;"/>
<stop offset="1" style="stop-color:rgb(100%,58.383149%,58.383149%);stop-opacity:1;"/>
</linearGradient>
<linearGradient id="linear22" gradientUnits="userSpaceOnUse" x1="0.8" y1="0" x2="1.5775" y2="0" gradientTransform="matrix(72,0,0,72,0,18)">
<stop offset="0" style="stop-color:rgb(50.196078%,0%,50.196078%);stop-opacity:1;"/>
<stop offset="1" style="stop-color:rgb(70.218223%,58.383149%,70.218223%);stop-opacity:1;"/>
</linearGradient>
<linearGradient id="linear23" gradientUnits="userSpaceOnUse" x1="0" y1="0" x2="0.7775" y2="0" gradientTransform="matrix(72,0,0,72,0,18)">
<stop offset="0" style="stop-color:rgb(100%,0%,0%);stop-opacity:1;"/>
<stop offset="1" style="stop-color:rgb(100%,58.383149%,58.383149%);stop-opacity:1;"/>
</linearGradient>
</defs>
<g id="surface26">
<path style=" stroke:none;fill-rule:nonzero;fill:url(#linear0);" d="M 326.398438 0.539062 L 343.976562 0.539062 L 343.976562 16.378906 L 326.398438 16.378906 Z M 326.398438 0.539062 "/>
<path style="fill:none;stroke-width:0.015;stroke-linecap:round;stroke-linejoin:miter;stroke:rgb(0%,0%,0%);stroke-opacity:1;stroke-miterlimit:10;" d="M 4.540853 0.00748698 L 4.540853 0.235026 " transform="matrix(72,0,0,72,0,0)"/>
<path style="fill:none;stroke-width:0.015;stroke-linecap:round;stroke-linejoin:miter;stroke:rgb(0%,0%,0%);stroke-opacity:1;stroke-miterlimit:10;" d="M 4.777507 0.00748698 L 4.777507 0.235026 " transform="matrix(72,0,0,72,0,0)"/>
<path style="fill:none;stroke-width:0.015;stroke-linecap:round;stroke-linejoin:miter;stroke:rgb(0%,0%,0%);stroke-opacity:1;stroke-miterlimit:10;" d="M 4.540853 0.00748698 L 4.777507 0.00748698 " transform="matrix(72,0,0,72,0,0)"/>
<path style="fill:none;stroke-width:0.015;stroke-linecap:round;stroke-linejoin:miter;stroke:rgb(0%,0%,0%);stroke-opacity:1;stroke-miterlimit:10;" d="M 4.540853 0.235026 L 4.777507 0.235026 " transform="matrix(72,0,0,72,0,0)"/>
<path style=" stroke:none;fill-rule:nonzero;fill:url(#linear1);" d="M 307.199219 0.539062 L 324.777344 0.539062 L 324.777344 16.378906 L 307.199219 16.378906 Z M 307.199219 0.539062 "/>
<path style="fill:none;stroke-width:0.015;stroke-linecap:round;stroke-linejoin:miter;stroke:rgb(0%,0%,0%);stroke-opacity:1;stroke-miterlimit:10;" d="M 4.274143 0.00748698 L 4.274143 0.235026 " transform="matrix(72,0,0,72,0,0)"/>
<path style="fill:none;stroke-width:0.015;stroke-linecap:round;stroke-linejoin:miter;stroke:rgb(0%,0%,0%);stroke-opacity:1;stroke-miterlimit:10;" d="M 4.510851 0.00748698 L 4.510851 0.235026 " transform="matrix(72,0,0,72,0,0)"/>
<path style="fill:none;stroke-width:0.015;stroke-linecap:round;stroke-linejoin:miter;stroke:rgb(0%,0%,0%);stroke-opacity:1;stroke-miterlimit:10;" d="M 4.274143 0.00748698 L 4.510851 0.00748698 " transform="matrix(72,0,0,72,0,0)"/>
<path style="fill:none;stroke-width:0.015;stroke-linecap:round;stroke-linejoin:miter;stroke:rgb(0%,0%,0%);stroke-opacity:1;stroke-miterlimit:10;" d="M 4.274143 0.235026 L 4.510851 0.235026 " transform="matrix(72,0,0,72,0,0)"/>
<path style=" stroke:none;fill-rule:nonzero;fill:url(#linear2);" d="M 288 0.539062 L 305.578125 0.539062 L 305.578125 16.378906 L 288 16.378906 Z M 288 0.539062 "/>
<path style="fill:none;stroke-width:0.015;stroke-linecap:round;stroke-linejoin:miter;stroke:rgb(0%,0%,0%);stroke-opacity:1;stroke-miterlimit:10;" d="M 4.007487 0.00748698 L 4.007487 0.235026 " transform="matrix(72,0,0,72,0,0)"/>
<path style="fill:none;stroke-width:0.015;stroke-linecap:round;stroke-linejoin:miter;stroke:rgb(0%,0%,0%);stroke-opacity:1;stroke-miterlimit:10;" d="M 4.244141 0.00748698 L 4.244141 0.235026 " transform="matrix(72,0,0,72,0,0)"/>
<path style="fill:none;stroke-width:0.015;stroke-linecap:round;stroke-linejoin:miter;stroke:rgb(0%,0%,0%);stroke-opacity:1;stroke-miterlimit:10;" d="M 4.007487 0.00748698 L 4.244141 0.00748698 " transform="matrix(72,0,0,72,0,0)"/>
<path style="fill:none;stroke-width:0.015;stroke-linecap:round;stroke-linejoin:miter;stroke:rgb(0%,0%,0%);stroke-opacity:1;stroke-miterlimit:10;" d="M 4.007487 0.235026 L 4.244141 0.235026 " transform="matrix(72,0,0,72,0,0)"/>
<path style=" stroke:none;fill-rule:nonzero;fill:url(#linear3);" d="M 268.800781 0.539062 L 286.378906 0.539062 L 286.378906 16.378906 L 268.800781 16.378906 Z M 268.800781 0.539062 "/>
<path style="fill:none;stroke-width:0.015;stroke-linecap:round;stroke-linejoin:miter;stroke:rgb(0%,0%,0%);stroke-opacity:1;stroke-miterlimit:10;" d="M 3.740831 0.00748698 L 3.740831 0.235026 " transform="matrix(72,0,0,72,0,0)"/>
<path style="fill:none;stroke-width:0.015;stroke-linecap:round;stroke-linejoin:miter;stroke:rgb(0%,0%,0%);stroke-opacity:1;stroke-miterlimit:10;" d="M 3.977485 0.00748698 L 3.977485 0.235026 " transform="matrix(72,0,0,72,0,0)"/>
<path style="fill:none;stroke-width:0.015;stroke-linecap:round;stroke-linejoin:miter;stroke:rgb(0%,0%,0%);stroke-opacity:1;stroke-miterlimit:10;" d="M 3.740831 0.00748698 L 3.977485 0.00748698 " transform="matrix(72,0,0,72,0,0)"/>
<path style="fill:none;stroke-width:0.015;stroke-linecap:round;stroke-linejoin:miter;stroke:rgb(0%,0%,0%);stroke-opacity:1;stroke-miterlimit:10;" d="M 3.740831 0.235026 L 3.977485 0.235026 " transform="matrix(72,0,0,72,0,0)"/>
<path style=" stroke:none;fill-rule:nonzero;fill:url(#linear4);" d="M 249.601562 0.539062 L 267.179688 0.539062 L 267.179688 16.378906 L 249.601562 16.378906 Z M 249.601562 0.539062 "/>
<path style="fill:none;stroke-width:0.015;stroke-linecap:round;stroke-linejoin:miter;stroke:rgb(0%,0%,0%);stroke-opacity:1;stroke-miterlimit:10;" d="M 3.474175 0.00748698 L 3.474175 0.235026 " transform="matrix(72,0,0,72,0,0)"/>
<path style="fill:none;stroke-width:0.015;stroke-linecap:round;stroke-linejoin:miter;stroke:rgb(0%,0%,0%);stroke-opacity:1;stroke-miterlimit:10;" d="M 3.710829 0.00748698 L 3.710829 0.235026 " transform="matrix(72,0,0,72,0,0)"/>
<path style="fill:none;stroke-width:0.015;stroke-linecap:round;stroke-linejoin:miter;stroke:rgb(0%,0%,0%);stroke-opacity:1;stroke-miterlimit:10;" d="M 3.474175 0.00748698 L 3.710829 0.00748698 " transform="matrix(72,0,0,72,0,0)"/>
<path style="fill:none;stroke-width:0.015;stroke-linecap:round;stroke-linejoin:miter;stroke:rgb(0%,0%,0%);stroke-opacity:1;stroke-miterlimit:10;" d="M 3.474175 0.235026 L 3.710829 0.235026 " transform="matrix(72,0,0,72,0,0)"/>
<path style=" stroke:none;fill-rule:nonzero;fill:url(#linear5);" d="M 230.398438 0.539062 L 247.976562 0.539062 L 247.976562 16.378906 L 230.398438 16.378906 Z M 230.398438 0.539062 "/>
<path style="fill:none;stroke-width:0.015;stroke-linecap:round;stroke-linejoin:miter;stroke:rgb(0%,0%,0%);stroke-opacity:1;stroke-miterlimit:10;" d="M 3.20752 0.00748698 L 3.20752 0.235026 " transform="matrix(72,0,0,72,0,0)"/>
<path style="fill:none;stroke-width:0.015;stroke-linecap:round;stroke-linejoin:miter;stroke:rgb(0%,0%,0%);stroke-opacity:1;stroke-miterlimit:10;" d="M 3.444173 0.00748698 L 3.444173 0.235026 " transform="matrix(72,0,0,72,0,0)"/>
<path style="fill:none;stroke-width:0.015;stroke-linecap:round;stroke-linejoin:miter;stroke:rgb(0%,0%,0%);stroke-opacity:1;stroke-miterlimit:10;" d="M 3.20752 0.00748698 L 3.444173 0.00748698 " transform="matrix(72,0,0,72,0,0)"/>
<path style="fill:none;stroke-width:0.015;stroke-linecap:round;stroke-linejoin:miter;stroke:rgb(0%,0%,0%);stroke-opacity:1;stroke-miterlimit:10;" d="M 3.20752 0.235026 L 3.444173 0.235026 " transform="matrix(72,0,0,72,0,0)"/>
<path style=" stroke:none;fill-rule:nonzero;fill:url(#linear6);" d="M 211.199219 0.539062 L 228.777344 0.539062 L 228.777344 16.378906 L 211.199219 16.378906 Z M 211.199219 0.539062 "/>
<path style="fill:none;stroke-width:0.015;stroke-linecap:round;stroke-linejoin:miter;stroke:rgb(0%,0%,0%);stroke-opacity:1;stroke-miterlimit:10;" d="M 2.940809 0.00748698 L 2.940809 0.235026 " transform="matrix(72,0,0,72,0,0)"/>
<path style="fill:none;stroke-width:0.015;stroke-linecap:round;stroke-linejoin:miter;stroke:rgb(0%,0%,0%);stroke-opacity:1;stroke-miterlimit:10;" d="M 3.177517 0.00748698 L 3.177517 0.235026 " transform="matrix(72,0,0,72,0,0)"/>
<path style="fill:none;stroke-width:0.015;stroke-linecap:round;stroke-linejoin:miter;stroke:rgb(0%,0%,0%);stroke-opacity:1;stroke-miterlimit:10;" d="M 2.940809 0.00748698 L 3.177517 0.00748698 " transform="matrix(72,0,0,72,0,0)"/>
<path style="fill:none;stroke-width:0.015;stroke-linecap:round;stroke-linejoin:miter;stroke:rgb(0%,0%,0%);stroke-opacity:1;stroke-miterlimit:10;" d="M 2.940809 0.235026 L 3.177517 0.235026 " transform="matrix(72,0,0,72,0,0)"/>
<path style=" stroke:none;fill-rule:nonzero;fill:url(#linear7);" d="M 192 0.539062 L 209.578125 0.539062 L 209.578125 16.378906 L 192 16.378906 Z M 192 0.539062 "/>
<path style="fill:none;stroke-width:0.015;stroke-linecap:round;stroke-linejoin:miter;stroke:rgb(0%,0%,0%);stroke-opacity:1;stroke-miterlimit:10;" d="M 2.674154 0.00748698 L 2.674154 0.235026 " transform="matrix(72,0,0,72,0,0)"/>
<path style="fill:none;stroke-width:0.015;stroke-linecap:round;stroke-linejoin:miter;stroke:rgb(0%,0%,0%);stroke-opacity:1;stroke-miterlimit:10;" d="M 2.910807 0.00748698 L 2.910807 0.235026 " transform="matrix(72,0,0,72,0,0)"/>
<path style="fill:none;stroke-width:0.015;stroke-linecap:round;stroke-linejoin:miter;stroke:rgb(0%,0%,0%);stroke-opacity:1;stroke-miterlimit:10;" d="M 2.674154 0.00748698 L 2.910807 0.00748698 " transform="matrix(72,0,0,72,0,0)"/>
<path style="fill:none;stroke-width:0.015;stroke-linecap:round;stroke-linejoin:miter;stroke:rgb(0%,0%,0%);stroke-opacity:1;stroke-miterlimit:10;" d="M 2.674154 0.235026 L 2.910807 0.235026 " transform="matrix(72,0,0,72,0,0)"/>
<path style=" stroke:none;fill-rule:nonzero;fill:url(#linear8);" d="M 172.800781 0.539062 L 190.378906 0.539062 L 190.378906 16.378906 L 172.800781 16.378906 Z M 172.800781 0.539062 "/>
<path style="fill:none;stroke-width:0.015;stroke-linecap:round;stroke-linejoin:miter;stroke:rgb(0%,0%,0%);stroke-opacity:1;stroke-miterlimit:10;" d="M 2.407498 0.00748698 L 2.407498 0.235026 " transform="matrix(72,0,0,72,0,0)"/>
<path style="fill:none;stroke-width:0.015;stroke-linecap:round;stroke-linejoin:miter;stroke:rgb(0%,0%,0%);stroke-opacity:1;stroke-miterlimit:10;" d="M 2.644151 0.00748698 L 2.644151 0.235026 " transform="matrix(72,0,0,72,0,0)"/>
<path style="fill:none;stroke-width:0.015;stroke-linecap:round;stroke-linejoin:miter;stroke:rgb(0%,0%,0%);stroke-opacity:1;stroke-miterlimit:10;" d="M 2.407498 0.00748698 L 2.644151 0.00748698 " transform="matrix(72,0,0,72,0,0)"/>
<path style="fill:none;stroke-width:0.015;stroke-linecap:round;stroke-linejoin:miter;stroke:rgb(0%,0%,0%);stroke-opacity:1;stroke-miterlimit:10;" d="M 2.407498 0.235026 L 2.644151 0.235026 " transform="matrix(72,0,0,72,0,0)"/>
<path style=" stroke:none;fill-rule:nonzero;fill:url(#linear9);" d="M 153.601562 0.539062 L 171.179688 0.539062 L 171.179688 16.378906 L 153.601562 16.378906 Z M 153.601562 0.539062 "/>
<path style="fill:none;stroke-width:0.015;stroke-linecap:round;stroke-linejoin:miter;stroke:rgb(0%,0%,0%);stroke-opacity:1;stroke-miterlimit:10;" d="M 2.140842 0.00748698 L 2.140842 0.235026 " transform="matrix(72,0,0,72,0,0)"/>
<path style="fill:none;stroke-width:0.015;stroke-linecap:round;stroke-linejoin:miter;stroke:rgb(0%,0%,0%);stroke-opacity:1;stroke-miterlimit:10;" d="M 2.377496 0.00748698 L 2.377496 0.235026 " transform="matrix(72,0,0,72,0,0)"/>
<path style="fill:none;stroke-width:0.015;stroke-linecap:round;stroke-linejoin:miter;stroke:rgb(0%,0%,0%);stroke-opacity:1;stroke-miterlimit:10;" d="M 2.140842 0.00748698 L 2.377496 0.00748698 " transform="matrix(72,0,0,72,0,0)"/>
<path style="fill:none;stroke-width:0.015;stroke-linecap:round;stroke-linejoin:miter;stroke:rgb(0%,0%,0%);stroke-opacity:1;stroke-miterlimit:10;" d="M 2.140842 0.235026 L 2.377496 0.235026 " transform="matrix(72,0,0,72,0,0)"/>
<path style=" stroke:none;fill-rule:nonzero;fill:url(#linear10);" d="M 134.398438 0.539062 L 151.976562 0.539062 L 151.976562 16.378906 L 134.398438 16.378906 Z M 134.398438 0.539062 "/>
<path style="fill:none;stroke-width:0.015;stroke-linecap:round;stroke-linejoin:miter;stroke:rgb(0%,0%,0%);stroke-opacity:1;stroke-miterlimit:10;" d="M 1.874186 0.00748698 L 1.874186 0.235026 " transform="matrix(72,0,0,72,0,0)"/>
<path style="fill:none;stroke-width:0.015;stroke-linecap:round;stroke-linejoin:miter;stroke:rgb(0%,0%,0%);stroke-opacity:1;stroke-miterlimit:10;" d="M 2.11084 0.00748698 L 2.11084 0.235026 " transform="matrix(72,0,0,72,0,0)"/>
<path style="fill:none;stroke-width:0.015;stroke-linecap:round;stroke-linejoin:miter;stroke:rgb(0%,0%,0%);stroke-opacity:1;stroke-miterlimit:10;" d="M 1.874186 0.00748698 L 2.11084 0.00748698 " transform="matrix(72,0,0,72,0,0)"/>
<path style="fill:none;stroke-width:0.015;stroke-linecap:round;stroke-linejoin:miter;stroke:rgb(0%,0%,0%);stroke-opacity:1;stroke-miterlimit:10;" d="M 1.874186 0.235026 L 2.11084 0.235026 " transform="matrix(72,0,0,72,0,0)"/>
<path style=" stroke:none;fill-rule:nonzero;fill:url(#linear11);" d="M 115.199219 0.539062 L 132.777344 0.539062 L 132.777344 16.378906 L 115.199219 16.378906 Z M 115.199219 0.539062 "/>
<path style="fill:none;stroke-width:0.015;stroke-linecap:round;stroke-linejoin:miter;stroke:rgb(0%,0%,0%);stroke-opacity:1;stroke-miterlimit:10;" d="M 1.607476 0.00748698 L 1.607476 0.235026 " transform="matrix(72,0,0,72,0,0)"/>
<path style="fill:none;stroke-width:0.015;stroke-linecap:round;stroke-linejoin:miter;stroke:rgb(0%,0%,0%);stroke-opacity:1;stroke-miterlimit:10;" d="M 1.844184 0.00748698 L 1.844184 0.235026 " transform="matrix(72,0,0,72,0,0)"/>
<path style="fill:none;stroke-width:0.015;stroke-linecap:round;stroke-linejoin:miter;stroke:rgb(0%,0%,0%);stroke-opacity:1;stroke-miterlimit:10;" d="M 1.607476 0.00748698 L 1.844184 0.00748698 " transform="matrix(72,0,0,72,0,0)"/>
<path style="fill:none;stroke-width:0.015;stroke-linecap:round;stroke-linejoin:miter;stroke:rgb(0%,0%,0%);stroke-opacity:1;stroke-miterlimit:10;" d="M 1.607476 0.235026 L 1.844184 0.235026 " transform="matrix(72,0,0,72,0,0)"/>
<path style=" stroke:none;fill-rule:nonzero;fill:url(#linear12);" d="M 96 0.539062 L 113.578125 0.539062 L 113.578125 16.378906 L 96 16.378906 Z M 96 0.539062 "/>
<path style="fill:none;stroke-width:0.015;stroke-linecap:round;stroke-linejoin:miter;stroke:rgb(0%,0%,0%);stroke-opacity:1;stroke-miterlimit:10;" d="M 1.34082 0.00748698 L 1.34082 0.235026 " transform="matrix(72,0,0,72,0,0)"/>
<path style="fill:none;stroke-width:0.015;stroke-linecap:round;stroke-linejoin:miter;stroke:rgb(0%,0%,0%);stroke-opacity:1;stroke-miterlimit:10;" d="M 1.577474 0.00748698 L 1.577474 0.235026 " transform="matrix(72,0,0,72,0,0)"/>
<path style="fill:none;stroke-width:0.015;stroke-linecap:round;stroke-linejoin:miter;stroke:rgb(0%,0%,0%);stroke-opacity:1;stroke-miterlimit:10;" d="M 1.34082 0.00748698 L 1.577474 0.00748698 " transform="matrix(72,0,0,72,0,0)"/>
<path style="fill:none;stroke-width:0.015;stroke-linecap:round;stroke-linejoin:miter;stroke:rgb(0%,0%,0%);stroke-opacity:1;stroke-miterlimit:10;" d="M 1.34082 0.235026 L 1.577474 0.235026 " transform="matrix(72,0,0,72,0,0)"/>
<path style=" stroke:none;fill-rule:nonzero;fill:url(#linear13);" d="M 76.800781 0.539062 L 94.378906 0.539062 L 94.378906 16.378906 L 76.800781 16.378906 Z M 76.800781 0.539062 "/>
<path style="fill:none;stroke-width:0.015;stroke-linecap:round;stroke-linejoin:miter;stroke:rgb(0%,0%,0%);stroke-opacity:1;stroke-miterlimit:10;" d="M 1.074164 0.00748698 L 1.074164 0.235026 " transform="matrix(72,0,0,72,0,0)"/>
<path style="fill:none;stroke-width:0.015;stroke-linecap:round;stroke-linejoin:miter;stroke:rgb(0%,0%,0%);stroke-opacity:1;stroke-miterlimit:10;" d="M 1.310818 0.00748698 L 1.310818 0.235026 " transform="matrix(72,0,0,72,0,0)"/>
<path style="fill:none;stroke-width:0.015;stroke-linecap:round;stroke-linejoin:miter;stroke:rgb(0%,0%,0%);stroke-opacity:1;stroke-miterlimit:10;" d="M 1.074164 0.00748698 L 1.310818 0.00748698 " transform="matrix(72,0,0,72,0,0)"/>
<path style="fill:none;stroke-width:0.015;stroke-linecap:round;stroke-linejoin:miter;stroke:rgb(0%,0%,0%);stroke-opacity:1;stroke-miterlimit:10;" d="M 1.074164 0.235026 L 1.310818 0.235026 " transform="matrix(72,0,0,72,0,0)"/>
<path style=" stroke:none;fill-rule:nonzero;fill:url(#linear14);" d="M 57.601562 0.539062 L 75.179688 0.539062 L 75.179688 16.378906 L 57.601562 16.378906 Z M 57.601562 0.539062 "/>
<path style="fill:none;stroke-width:0.015;stroke-linecap:round;stroke-linejoin:miter;stroke:rgb(0%,0%,0%);stroke-opacity:1;stroke-miterlimit:10;" d="M 0.807509 0.00748698 L 0.807509 0.235026 " transform="matrix(72,0,0,72,0,0)"/>
<path style="fill:none;stroke-width:0.015;stroke-linecap:round;stroke-linejoin:miter;stroke:rgb(0%,0%,0%);stroke-opacity:1;stroke-miterlimit:10;" d="M 1.044162 0.00748698 L 1.044162 0.235026 " transform="matrix(72,0,0,72,0,0)"/>
<path style="fill:none;stroke-width:0.015;stroke-linecap:round;stroke-linejoin:miter;stroke:rgb(0%,0%,0%);stroke-opacity:1;stroke-miterlimit:10;" d="M 0.807509 0.00748698 L 1.044162 0.00748698 " transform="matrix(72,0,0,72,0,0)"/>
<path style="fill:none;stroke-width:0.015;stroke-linecap:round;stroke-linejoin:miter;stroke:rgb(0%,0%,0%);stroke-opacity:1;stroke-miterlimit:10;" d="M 0.807509 0.235026 L 1.044162 0.235026 " transform="matrix(72,0,0,72,0,0)"/>
<path style=" stroke:none;fill-rule:nonzero;fill:url(#linear15);" d="M 38.398438 0.539062 L 55.976562 0.539062 L 55.976562 16.378906 L 38.398438 16.378906 Z M 38.398438 0.539062 "/>
<path style="fill:none;stroke-width:0.015;stroke-linecap:round;stroke-linejoin:miter;stroke:rgb(0%,0%,0%);stroke-opacity:1;stroke-miterlimit:10;" d="M 0.540853 0.00748698 L 0.540853 0.235026 " transform="matrix(72,0,0,72,0,0)"/>
<path style="fill:none;stroke-width:0.015;stroke-linecap:round;stroke-linejoin:miter;stroke:rgb(0%,0%,0%);stroke-opacity:1;stroke-miterlimit:10;" d="M 0.777507 0.00748698 L 0.777507 0.235026 " transform="matrix(72,0,0,72,0,0)"/>
<path style="fill:none;stroke-width:0.015;stroke-linecap:round;stroke-linejoin:miter;stroke:rgb(0%,0%,0%);stroke-opacity:1;stroke-miterlimit:10;" d="M 0.540853 0.00748698 L 0.777507 0.00748698 " transform="matrix(72,0,0,72,0,0)"/>
<path style="fill:none;stroke-width:0.015;stroke-linecap:round;stroke-linejoin:miter;stroke:rgb(0%,0%,0%);stroke-opacity:1;stroke-miterlimit:10;" d="M 0.540853 0.235026 L 0.777507 0.235026 " transform="matrix(72,0,0,72,0,0)"/>
<path style=" stroke:none;fill-rule:nonzero;fill:url(#linear16);" d="M 19.199219 0.539062 L 36.777344 0.539062 L 36.777344 16.378906 L 19.199219 16.378906 Z M 19.199219 0.539062 "/>
<path style="fill:none;stroke-width:0.015;stroke-linecap:round;stroke-linejoin:miter;stroke:rgb(0%,0%,0%);stroke-opacity:1;stroke-miterlimit:10;" d="M 0.274143 0.00748698 L 0.274143 0.235026 " transform="matrix(72,0,0,72,0,0)"/>
<path style="fill:none;stroke-width:0.015;stroke-linecap:round;stroke-linejoin:miter;stroke:rgb(0%,0%,0%);stroke-opacity:1;stroke-miterlimit:10;" d="M 0.510851 0.00748698 L 0.510851 0.235026 " transform="matrix(72,0,0,72,0,0)"/>
<path style="fill:none;stroke-width:0.015;stroke-linecap:round;stroke-linejoin:miter;stroke:rgb(0%,0%,0%);stroke-opacity:1;stroke-miterlimit:10;" d="M 0.274143 0.00748698 L 0.510851 0.00748698 " transform="matrix(72,0,0,72,0,0)"/>
<path style="fill:none;stroke-width:0.015;stroke-linecap:round;stroke-linejoin:miter;stroke:rgb(0%,0%,0%);stroke-opacity:1;stroke-miterlimit:10;" d="M 0.274143 0.235026 L 0.510851 0.235026 " transform="matrix(72,0,0,72,0,0)"/>
<path style=" stroke:none;fill-rule:nonzero;fill:url(#linear17);" d="M 0 0.539062 L 17.578125 0.539062 L 17.578125 16.378906 L 0 16.378906 Z M 0 0.539062 "/>
<path style="fill:none;stroke-width:0.015;stroke-linecap:round;stroke-linejoin:miter;stroke:rgb(0%,0%,0%);stroke-opacity:1;stroke-miterlimit:10;" d="M 0.00748698 0.00748698 L 0.00748698 0.235026 " transform="matrix(72,0,0,72,0,0)"/>
<path style="fill:none;stroke-width:0.015;stroke-linecap:round;stroke-linejoin:miter;stroke:rgb(0%,0%,0%);stroke-opacity:1;stroke-miterlimit:10;" d="M 0.244141 0.00748698 L 0.244141 0.235026 " transform="matrix(72,0,0,72,0,0)"/>
<path style="fill:none;stroke-width:0.015;stroke-linecap:round;stroke-linejoin:miter;stroke:rgb(0%,0%,0%);stroke-opacity:1;stroke-miterlimit:10;" d="M 0.00748698 0.00748698 L 0.244141 0.00748698 " transform="matrix(72,0,0,72,0,0)"/>
<path style="fill:none;stroke-width:0.015;stroke-linecap:round;stroke-linejoin:miter;stroke:rgb(0%,0%,0%);stroke-opacity:1;stroke-miterlimit:10;" d="M 0.00748698 0.235026 L 0.244141 0.235026 " transform="matrix(72,0,0,72,0,0)"/>
<path style=" stroke:none;fill-rule:nonzero;fill:url(#linear18);" d="M 288 18.539062 L 343.980469 18.539062 L 343.980469 34.378906 L 288 34.378906 Z M 288 18.539062 "/>
<path style="fill:none;stroke-width:0.015;stroke-linecap:round;stroke-linejoin:miter;stroke:rgb(0%,0%,0%);stroke-opacity:1;stroke-miterlimit:10;" d="M 4.007487 0.00748698 L 4.007487 0.235026 " transform="matrix(72,0,0,72,0,18)"/>
<path style="fill:none;stroke-width:0.015;stroke-linecap:round;stroke-linejoin:miter;stroke:rgb(0%,0%,0%);stroke-opacity:1;stroke-miterlimit:10;" d="M 4.777507 0.00748698 L 4.777507 0.235026 " transform="matrix(72,0,0,72,0,18)"/>
<path style="fill:none;stroke-width:0.015;stroke-linecap:round;stroke-linejoin:miter;stroke:rgb(0%,0%,0%);stroke-opacity:1;stroke-miterlimit:10;" d="M 4.007487 0.00748698 L 4.777507 0.00748698 " transform="matrix(72,0,0,72,0,18)"/>
<path style="fill:none;stroke-width:0.015;stroke-linecap:round;stroke-linejoin:miter;stroke:rgb(0%,0%,0%);stroke-opacity:1;stroke-miterlimit:10;" d="M 4.007487 0.235026 L 4.777507 0.235026 " transform="matrix(72,0,0,72,0,18)"/>
<path style=" stroke:none;fill-rule:nonzero;fill:url(#linear19);" d="M 230.398438 18.539062 L 286.378906 18.539062 L 286.378906 34.378906 L 230.398438 34.378906 Z M 230.398438 18.539062 "/>
<path style="fill:none;stroke-width:0.015;stroke-linecap:round;stroke-linejoin:miter;stroke:rgb(0%,0%,0%);stroke-opacity:1;stroke-miterlimit:10;" d="M 3.20752 0.00748698 L 3.20752 0.235026 " transform="matrix(72,0,0,72,0,18)"/>
<path style="fill:none;stroke-width:0.015;stroke-linecap:round;stroke-linejoin:miter;stroke:rgb(0%,0%,0%);stroke-opacity:1;stroke-miterlimit:10;" d="M 3.977485 0.00748698 L 3.977485 0.235026 " transform="matrix(72,0,0,72,0,18)"/>
<path style="fill:none;stroke-width:0.015;stroke-linecap:round;stroke-linejoin:miter;stroke:rgb(0%,0%,0%);stroke-opacity:1;stroke-miterlimit:10;" d="M 3.20752 0.00748698 L 3.977485 0.00748698 " transform="matrix(72,0,0,72,0,18)"/>
<path style="fill:none;stroke-width:0.015;stroke-linecap:round;stroke-linejoin:miter;stroke:rgb(0%,0%,0%);stroke-opacity:1;stroke-miterlimit:10;" d="M 3.20752 0.235026 L 3.977485 0.235026 " transform="matrix(72,0,0,72,0,18)"/>
<path style=" stroke:none;fill-rule:nonzero;fill:url(#linear20);" d="M 172.800781 18.539062 L 228.78125 18.539062 L 228.78125 34.378906 L 172.800781 34.378906 Z M 172.800781 18.539062 "/>
<path style="fill:none;stroke-width:0.015;stroke-linecap:round;stroke-linejoin:miter;stroke:rgb(0%,0%,0%);stroke-opacity:1;stroke-miterlimit:10;" d="M 2.407498 0.00748698 L 2.407498 0.235026 " transform="matrix(72,0,0,72,0,18)"/>
<path style="fill:none;stroke-width:0.015;stroke-linecap:round;stroke-linejoin:miter;stroke:rgb(0%,0%,0%);stroke-opacity:1;stroke-miterlimit:10;" d="M 3.177517 0.00748698 L 3.177517 0.235026 " transform="matrix(72,0,0,72,0,18)"/>
<path style="fill:none;stroke-width:0.015;stroke-linecap:round;stroke-linejoin:miter;stroke:rgb(0%,0%,0%);stroke-opacity:1;stroke-miterlimit:10;" d="M 2.407498 0.00748698 L 3.177517 0.00748698 " transform="matrix(72,0,0,72,0,18)"/>
<path style="fill:none;stroke-width:0.015;stroke-linecap:round;stroke-linejoin:miter;stroke:rgb(0%,0%,0%);stroke-opacity:1;stroke-miterlimit:10;" d="M 2.407498 0.235026 L 3.177517 0.235026 " transform="matrix(72,0,0,72,0,18)"/>
<path style=" stroke:none;fill-rule:nonzero;fill:url(#linear21);" d="M 115.199219 18.539062 L 171.179688 18.539062 L 171.179688 34.378906 L 115.199219 34.378906 Z M 115.199219 18.539062 "/>
<path style="fill:none;stroke-width:0.015;stroke-linecap:round;stroke-linejoin:miter;stroke:rgb(0%,0%,0%);stroke-opacity:1;stroke-miterlimit:10;" d="M 1.607476 0.00748698 L 1.607476 0.235026 " transform="matrix(72,0,0,72,0,18)"/>
<path style="fill:none;stroke-width:0.015;stroke-linecap:round;stroke-linejoin:miter;stroke:rgb(0%,0%,0%);stroke-opacity:1;stroke-miterlimit:10;" d="M 2.377496 0.00748698 L 2.377496 0.235026 " transform="matrix(72,0,0,72,0,18)"/>
<path style="fill:none;stroke-width:0.015;stroke-linecap:round;stroke-linejoin:miter;stroke:rgb(0%,0%,0%);stroke-opacity:1;stroke-miterlimit:10;" d="M 1.607476 0.00748698 L 2.377496 0.00748698 " transform="matrix(72,0,0,72,0,18)"/>
<path style="fill:none;stroke-width:0.015;stroke-linecap:round;stroke-linejoin:miter;stroke:rgb(0%,0%,0%);stroke-opacity:1;stroke-miterlimit:10;" d="M 1.607476 0.235026 L 2.377496 0.235026 " transform="matrix(72,0,0,72,0,18)"/>
<path style=" stroke:none;fill-rule:nonzero;fill:url(#linear22);" d="M 57.601562 18.539062 L 113.582031 18.539062 L 113.582031 34.378906 L 57.601562 34.378906 Z M 57.601562 18.539062 "/>
<path style="fill:none;stroke-width:0.015;stroke-linecap:round;stroke-linejoin:miter;stroke:rgb(0%,0%,0%);stroke-opacity:1;stroke-miterlimit:10;" d="M 0.807509 0.00748698 L 0.807509 0.235026 " transform="matrix(72,0,0,72,0,18)"/>
<path style="fill:none;stroke-width:0.015;stroke-linecap:round;stroke-linejoin:miter;stroke:rgb(0%,0%,0%);stroke-opacity:1;stroke-miterlimit:10;" d="M 1.577474 0.00748698 L 1.577474 0.235026 " transform="matrix(72,0,0,72,0,18)"/>
<path style="fill:none;stroke-width:0.015;stroke-linecap:round;stroke-linejoin:miter;stroke:rgb(0%,0%,0%);stroke-opacity:1;stroke-miterlimit:10;" d="M 0.807509 0.00748698 L 1.577474 0.00748698 " transform="matrix(72,0,0,72,0,18)"/>
<path style="fill:none;stroke-width:0.015;stroke-linecap:round;stroke-linejoin:miter;stroke:rgb(0%,0%,0%);stroke-opacity:1;stroke-miterlimit:10;" d="M 0.807509 0.235026 L 1.577474 0.235026 " transform="matrix(72,0,0,72,0,18)"/>
<path style=" stroke:none;fill-rule:nonzero;fill:url(#linear23);" d="M 0 18.539062 L 55.980469 18.539062 L 55.980469 34.378906 L 0 34.378906 Z M 0 18.539062 "/>
<path style="fill:none;stroke-width:0.015;stroke-linecap:round;stroke-linejoin:miter;stroke:rgb(0%,0%,0%);stroke-opacity:1;stroke-miterlimit:10;" d="M 0.00748698 0.00748698 L 0.00748698 0.235026 " transform="matrix(72,0,0,72,0,18)"/>
<path style="fill:none;stroke-width:0.015;stroke-linecap:round;stroke-linejoin:miter;stroke:rgb(0%,0%,0%);stroke-opacity:1;stroke-miterlimit:10;" d="M 0.777507 0.00748698 L 0.777507 0.235026 " transform="matrix(72,0,0,72,0,18)"/>
<path style="fill:none;stroke-width:0.015;stroke-linecap:round;stroke-linejoin:miter;stroke:rgb(0%,0%,0%);stroke-opacity:1;stroke-miterlimit:10;" d="M 0.00748698 0.00748698 L 0.777507 0.00748698 " transform="matrix(72,0,0,72,0,18)"/>
<path style="fill:none;stroke-width:0.015;stroke-linecap:round;stroke-linejoin:miter;stroke:rgb(0%,0%,0%);stroke-opacity:1;stroke-miterlimit:10;" d="M 0.00748698 0.235026 L 0.777507 0.235026 " transform="matrix(72,0,0,72,0,18)"/>
</g>
</svg>
